<svg width="734" height="155" viewBox="0 0 734 155" fill="none" xmlns="http://www.w3.org/2000/svg">
<path d="M708.556 56.5194V87.2139C708.556 87.2139 702.001 88.4958 700.647 88.6764C699.293 88.8569 695.086 90.2111 692.017 87.268C687.286 82.6458 670.512 65.9444 670.512 65.9444C669.458 65.0872 668.158 64.5883 666.801 64.5201C665.444 64.4519 664.1 64.818 662.965 65.5653C658.704 67.8042 652.367 71.1083 649.731 72.3903C648.842 72.9099 647.835 73.1955 646.806 73.2203C645.777 73.245 644.758 73.0082 643.845 72.5319C642.932 72.0556 642.155 71.3555 641.587 70.4971C641.018 69.6386 640.677 68.65 640.594 67.6236C640.652 66.4553 641.039 65.3271 641.71 64.3688C642.38 63.4105 643.308 62.6612 644.386 62.2069C650.399 58.5958 663.092 51.3736 668.382 48.6292C671.596 46.8236 673.907 46.8236 678.331 50.4347C683.765 55.1111 688.694 59.2097 688.694 59.2097C689.278 59.6261 689.945 59.9111 690.65 60.0451C691.354 60.1791 692.079 60.159 692.775 59.9861C698.86 58.7222 708.556 56.5194 708.556 56.5194ZM641.75 108.375C642.159 107.437 642.294 106.403 642.139 105.391C641.984 104.38 641.546 103.433 640.875 102.66C640.204 101.888 639.329 101.321 638.349 101.025C637.37 100.73 636.326 100.717 635.34 100.99C635.64 100.065 635.69 99.078 635.488 98.1273C635.285 97.1765 634.835 96.2959 634.185 95.5736C633.476 94.8982 632.605 94.4183 631.655 94.1809C630.706 93.9435 629.711 93.9568 628.768 94.2194C629.065 93.293 629.113 92.3047 628.907 91.3539C628.701 90.4031 628.248 89.5232 627.594 88.8028C626.424 87.7219 624.878 87.1414 623.286 87.1853C621.693 87.2291 620.181 87.8939 619.072 89.0375C616.581 91.4208 614.974 95.7542 617.267 98.3181C619.56 100.882 622.033 99.3111 623.983 98.8597C623.442 100.792 621.817 102.597 623.821 105.125C625.825 107.653 628.587 106.118 630.537 105.667C629.996 107.599 628.443 109.567 630.357 111.914C632.271 114.261 635.485 113.015 637.579 112.365C636.767 114.442 635.033 116.681 637.254 119.208C639.475 121.736 644.621 120.562 647.131 118.161C648.321 117.111 649.047 115.632 649.148 114.048C649.25 112.464 648.719 110.904 647.672 109.711C646.909 108.957 645.949 108.432 644.902 108.196C643.855 107.96 642.763 108.022 641.75 108.375ZM687.521 92.45L668.147 73.1667C667.251 72.3285 666.132 71.7669 664.925 71.5491C663.717 71.3313 662.473 71.4666 661.34 71.9389C658.632 73.1306 655.147 74.7556 652.511 75.9833C650.696 77.064 648.671 77.7414 646.571 77.9694C644.368 77.9904 642.219 77.2903 640.452 75.9758C638.684 74.6613 637.395 72.8047 636.781 70.6892C636.168 68.5737 636.263 66.3155 637.052 64.2591C637.842 62.2028 639.282 60.4611 641.154 59.3C645.361 56.4292 654.551 51.5 654.551 51.5C653.395 50.2841 651.99 49.3321 650.432 48.7089C648.874 48.0857 647.2 47.806 645.524 47.8889C639.349 47.8889 626.421 56.375 626.421 56.375C625.053 57.0896 623.54 57.4823 621.997 57.5229C620.455 57.5636 618.923 57.2513 617.519 56.6097L607.444 53.1069V88.1347C607.444 88.1347 610.315 88.9653 612.861 89.9403C613.439 88.2544 614.404 86.7272 615.678 85.4806C617.733 83.5091 620.464 82.3992 623.312 82.3791C626.159 82.359 628.906 83.43 630.989 85.3722C632.148 86.5686 632.981 88.0418 633.408 89.6514C634.974 90.1389 636.395 91.0074 637.543 92.1792C638.706 93.3978 639.533 94.897 639.944 96.5305C641.595 97.0429 643.083 97.9796 644.258 99.2469C645.434 100.514 646.256 102.068 646.643 103.753C648.283 104.22 649.771 105.11 650.958 106.335C652.066 107.493 652.885 108.896 653.349 110.43C653.814 111.964 653.91 113.586 653.631 115.164C653.631 115.164 655.075 116.789 655.96 117.674C656.793 118.507 657.923 118.975 659.101 118.975C660.28 118.975 661.41 118.507 662.243 117.674C663.076 116.84 663.544 115.71 663.544 114.532C663.544 113.354 663.076 112.223 662.243 111.39C662.243 111.39 665.854 115.868 669.971 113.196C673.582 110.668 673.022 107.671 671.307 105.974C671.831 106.597 672.48 107.102 673.214 107.456C673.947 107.81 674.747 108.005 675.56 108.027C676.374 108.049 677.184 107.898 677.935 107.585C678.686 107.271 679.363 106.802 679.919 106.208C680.694 105.423 681.148 104.377 681.192 103.275C681.235 102.172 680.865 101.094 680.154 100.25C680.154 100.25 682.556 103.518 687.376 100.467C690.789 97.5778 689.182 94.2736 687.376 92.5403L687.521 92.45Z" fill="#2A80FF"/>
<path d="M15.6889 106V40.5455H41.5128C46.456 40.5455 50.6747 41.4297 54.169 43.1982C57.6847 44.9453 60.3587 47.4276 62.1911 50.6449C64.0447 53.8409 64.9716 57.6016 64.9716 61.9268C64.9716 66.2734 64.0341 70.0128 62.1591 73.1449C60.2841 76.2557 57.5675 78.642 54.0092 80.304C50.4723 81.9659 46.1896 82.7969 41.1612 82.7969H23.8707V71.6747H38.924C41.5661 71.6747 43.7607 71.3125 45.5078 70.5881C47.255 69.8636 48.5547 68.777 49.407 67.3281C50.2805 65.8793 50.7173 64.0788 50.7173 61.9268C50.7173 59.7535 50.2805 57.9212 49.407 56.4297C48.5547 54.9382 47.2443 53.8089 45.4759 53.0419C43.7287 52.2536 41.5234 51.8594 38.8601 51.8594H29.5277V106H15.6889ZM51.0369 76.2131L67.3047 106H52.0277L36.1115 76.2131H51.0369ZM96.0769 106.959C91.0272 106.959 86.6806 105.936 83.0371 103.891C79.415 101.824 76.6238 98.9048 74.6635 95.1335C72.7033 91.3409 71.7232 86.8558 71.7232 81.6783C71.7232 76.6286 72.7033 72.1967 74.6635 68.3828C76.6238 64.5689 79.383 61.5966 82.9412 59.4659C86.5208 57.3352 90.7182 56.2699 95.5336 56.2699C98.7722 56.2699 101.787 56.7919 104.578 57.8359C107.391 58.8587 109.841 60.4034 111.929 62.4702C114.039 64.5369 115.679 67.1364 116.851 70.2685C118.023 73.3793 118.609 77.0227 118.609 81.1989V84.9382H77.1564V76.5007H105.793C105.793 74.5405 105.367 72.804 104.514 71.2912C103.662 69.7784 102.48 68.5959 100.967 67.7436C99.4753 66.87 97.7388 66.4332 95.7573 66.4332C93.6905 66.4332 91.8581 66.9126 90.2601 67.8714C88.6834 68.8089 87.4476 70.0767 86.5527 71.6747C85.6578 73.2514 85.1998 75.0092 85.1784 76.9482V84.9702C85.1784 87.3991 85.6259 89.4979 86.5208 91.2663C87.437 93.0348 88.726 94.3984 90.388 95.3572C92.0499 96.3161 94.0208 96.7955 96.3006 96.7955C97.8134 96.7955 99.1983 96.5824 100.455 96.1562C101.713 95.7301 102.789 95.0909 103.683 94.2386C104.578 93.3864 105.26 92.3423 105.729 91.1065L118.321 91.9375C117.682 94.9631 116.372 97.6051 114.39 99.8636C112.43 102.101 109.894 103.848 106.784 105.105C103.694 106.341 100.125 106.959 96.0769 106.959ZM168.339 70.9077L155.874 71.6747C155.661 70.6094 155.203 69.6506 154.5 68.7983C153.797 67.9247 152.87 67.2322 151.72 66.7209C150.59 66.1882 149.237 65.9219 147.661 65.9219C145.551 65.9219 143.772 66.3693 142.323 67.2642C140.874 68.1378 140.15 69.3097 140.15 70.7798C140.15 71.9517 140.619 72.9425 141.556 73.7521C142.494 74.5618 144.102 75.2116 146.382 75.7017L155.267 77.4915C160.04 78.4716 163.598 80.0483 165.942 82.2216C168.286 84.3949 169.458 87.25 169.458 90.7869C169.458 94.0043 168.509 96.8274 166.613 99.2564C164.738 101.685 162.16 103.582 158.879 104.945C155.619 106.288 151.858 106.959 147.597 106.959C141.098 106.959 135.921 105.606 132.064 102.9C128.229 100.173 125.981 96.4652 125.32 91.7777L138.712 91.0746C139.117 93.0561 140.097 94.5689 141.652 95.6129C143.208 96.6357 145.2 97.147 147.629 97.147C150.015 97.147 151.933 96.6889 153.382 95.7727C154.852 94.8352 155.597 93.6314 155.619 92.1612C155.597 90.9254 155.075 89.9134 154.053 89.125C153.03 88.3153 151.453 87.6974 149.323 87.2713L140.821 85.5774C136.027 84.6186 132.458 82.9567 130.115 80.5916C127.792 78.2266 126.631 75.2116 126.631 71.5469C126.631 68.3935 127.483 65.6768 129.188 63.397C130.914 61.1172 133.332 59.3594 136.443 58.1236C139.575 56.8878 143.24 56.2699 147.437 56.2699C153.637 56.2699 158.517 57.5803 162.075 60.201C165.654 62.8217 167.742 66.3906 168.339 70.9077ZM200.403 106.959C195.353 106.959 191.007 105.936 187.363 103.891C183.741 101.824 180.95 98.9048 178.99 95.1335C177.029 91.3409 176.049 86.8558 176.049 81.6783C176.049 76.6286 177.029 72.1967 178.99 68.3828C180.95 64.5689 183.709 61.5966 187.267 59.4659C190.847 57.3352 195.044 56.2699 199.86 56.2699C203.098 56.2699 206.113 56.7919 208.904 57.8359C211.717 58.8587 214.167 60.4034 216.255 62.4702C218.365 64.5369 220.005 67.1364 221.177 70.2685C222.349 73.3793 222.935 77.0227 222.935 81.1989V84.9382H181.483V76.5007H210.119C210.119 74.5405 209.693 72.804 208.841 71.2912C207.988 69.7784 206.806 68.5959 205.293 67.7436C203.801 66.87 202.065 66.4332 200.083 66.4332C198.017 66.4332 196.184 66.9126 194.586 67.8714C193.01 68.8089 191.774 70.0767 190.879 71.6747C189.984 73.2514 189.526 75.0092 189.505 76.9482V84.9702C189.505 87.3991 189.952 89.4979 190.847 91.2663C191.763 93.0348 193.052 94.3984 194.714 95.3572C196.376 96.3161 198.347 96.7955 200.627 96.7955C202.14 96.7955 203.525 96.5824 204.782 96.1562C206.039 95.7301 207.115 95.0909 208.01 94.2386C208.904 93.3864 209.586 92.3423 210.055 91.1065L222.647 91.9375C222.008 94.9631 220.698 97.6051 218.716 99.8636C216.756 102.101 214.221 103.848 211.11 105.105C208.02 106.341 204.451 106.959 200.403 106.959ZM231.82 106V56.9091H245.02V65.4744H245.531C246.426 62.4276 247.928 60.1264 250.037 58.571C252.147 56.9943 254.576 56.206 257.324 56.206C258.006 56.206 258.741 56.2486 259.529 56.3338C260.318 56.419 261.01 56.5362 261.607 56.6854V68.7663C260.968 68.5746 260.083 68.4041 258.954 68.255C257.825 68.1058 256.792 68.0312 255.854 68.0312C253.851 68.0312 252.061 68.468 250.485 69.3416C248.929 70.1939 247.694 71.3871 246.777 72.9212C245.882 74.4553 245.435 76.2237 245.435 78.2266V106H231.82ZM315.907 56.9091L298.745 106H283.404L266.241 56.9091H280.623L290.819 92.0334H291.33L301.493 56.9091H315.907ZM343.665 106.959C338.615 106.959 334.268 105.936 330.625 103.891C327.003 101.824 324.212 98.9048 322.251 95.1335C320.291 91.3409 319.311 86.8558 319.311 81.6783C319.311 76.6286 320.291 72.1967 322.251 68.3828C324.212 64.5689 326.971 61.5966 330.529 59.4659C334.109 57.3352 338.306 56.2699 343.121 56.2699C346.36 56.2699 349.375 56.7919 352.166 57.8359C354.979 58.8587 357.429 60.4034 359.517 62.4702C361.626 64.5369 363.267 67.1364 364.439 70.2685C365.611 73.3793 366.197 77.0227 366.197 81.1989V84.9382H324.744V76.5007H353.381C353.381 74.5405 352.955 72.804 352.102 71.2912C351.25 69.7784 350.067 68.5959 348.555 67.7436C347.063 66.87 345.327 66.4332 343.345 66.4332C341.278 66.4332 339.446 66.9126 337.848 67.8714C336.271 68.8089 335.036 70.0767 334.141 71.6747C333.246 73.2514 332.788 75.0092 332.766 76.9482V84.9702C332.766 87.3991 333.214 89.4979 334.109 91.2663C335.025 93.0348 336.314 94.3984 337.976 95.3572C339.638 96.3161 341.609 96.7955 343.888 96.7955C345.401 96.7955 346.786 96.5824 348.043 96.1562C349.3 95.7301 350.376 95.0909 351.271 94.2386C352.166 93.3864 352.848 92.3423 353.317 91.1065L365.909 91.9375C365.27 94.9631 363.96 97.6051 361.978 99.8636C360.018 102.101 357.482 103.848 354.371 105.105C351.282 106.341 347.713 106.959 343.665 106.959ZM375.337 40.5455H392.404L410.43 84.5227H411.197L429.222 40.5455H446.289V106H432.866V63.397H432.322L415.384 105.68H406.243L389.304 63.2372H388.761V106H375.337V40.5455ZM471.434 106.927C468.302 106.927 465.51 106.384 463.06 105.297C460.61 104.189 458.671 102.559 457.243 100.407C455.837 98.2337 455.134 95.5277 455.134 92.2891C455.134 89.5618 455.635 87.2713 456.636 85.4176C457.638 83.5639 459.001 82.0724 460.727 80.9432C462.453 79.8139 464.413 78.9616 466.608 78.3864C468.824 77.8111 471.146 77.4062 473.575 77.1719C476.43 76.8736 478.731 76.5966 480.479 76.3409C482.226 76.0639 483.493 75.6591 484.282 75.1264C485.07 74.5937 485.464 73.8054 485.464 72.7614V72.5696C485.464 70.5455 484.825 68.9794 483.547 67.8714C482.29 66.7635 480.5 66.2095 478.177 66.2095C475.727 66.2095 473.778 66.7528 472.329 67.8395C470.88 68.9048 469.921 70.2472 469.452 71.8665L456.86 70.8438C457.499 67.8608 458.756 65.2827 460.631 63.1094C462.506 60.9148 464.925 59.2315 467.886 58.0597C470.869 56.8665 474.321 56.2699 478.241 56.2699C480.969 56.2699 483.579 56.5895 486.072 57.2287C488.586 57.8679 490.812 58.8587 492.751 60.201C494.711 61.5433 496.256 63.2692 497.385 65.3786C498.515 67.4666 499.079 69.9702 499.079 72.8892V106H486.167V99.1925H485.784C484.996 100.727 483.941 102.08 482.62 103.251C481.299 104.402 479.711 105.308 477.858 105.968C476.004 106.607 473.863 106.927 471.434 106.927ZM475.333 97.5305C477.336 97.5305 479.104 97.1364 480.638 96.348C482.172 95.5384 483.376 94.4517 484.25 93.0881C485.123 91.7244 485.56 90.1797 485.56 88.4538V83.2443C485.134 83.5213 484.548 83.777 483.802 84.0114C483.078 84.2244 482.258 84.4268 481.341 84.6186C480.425 84.7891 479.509 84.9489 478.593 85.098C477.677 85.2259 476.846 85.343 476.1 85.4496C474.502 85.6839 473.106 86.0568 471.913 86.5682C470.72 87.0795 469.793 87.772 469.133 88.6456C468.472 89.4979 468.142 90.5632 468.142 91.8416C468.142 93.6953 468.813 95.1122 470.155 96.0923C471.519 97.0511 473.245 97.5305 475.333 97.5305ZM535.754 56.9091V67.1364H506.191V56.9091H535.754ZM512.902 45.1477H526.517V90.9148C526.517 92.1719 526.709 93.152 527.093 93.8551C527.476 94.5369 528.009 95.0163 528.691 95.2933C529.394 95.5703 530.203 95.7088 531.119 95.7088C531.759 95.7088 532.398 95.6555 533.037 95.549C533.676 95.4212 534.166 95.3253 534.507 95.2614L536.649 105.393C535.967 105.606 535.008 105.851 533.772 106.128C532.536 106.426 531.034 106.607 529.266 106.671C525.985 106.799 523.108 106.362 520.637 105.361C518.186 104.359 516.279 102.804 514.916 100.695C513.552 98.5852 512.881 95.9219 512.902 92.7045V45.1477ZM566.468 106.959C561.418 106.959 557.071 105.936 553.428 103.891C549.806 101.824 547.014 98.9048 545.054 95.1335C543.094 91.3409 542.114 86.8558 542.114 81.6783C542.114 76.6286 543.094 72.1967 545.054 68.3828C547.014 64.5689 549.774 61.5966 553.332 59.4659C556.911 57.3352 561.109 56.2699 565.924 56.2699C569.163 56.2699 572.178 56.7919 574.969 57.8359C577.781 58.8587 580.232 60.4034 582.32 62.4702C584.429 64.5369 586.07 67.1364 587.242 70.2685C588.414 73.3793 588.999 77.0227 588.999 81.1989V84.9382H547.547V76.5007H576.183C576.183 74.5405 575.757 72.804 574.905 71.2912C574.053 69.7784 572.87 68.5959 571.357 67.7436C569.866 66.87 568.129 66.4332 566.148 66.4332C564.081 66.4332 562.249 66.9126 560.651 67.8714C559.074 68.8089 557.838 70.0767 556.943 71.6747C556.048 73.2514 555.59 75.0092 555.569 76.9482V84.9702C555.569 87.3991 556.017 89.4979 556.911 91.2663C557.828 93.0348 559.117 94.3984 560.779 95.3572C562.441 96.3161 564.411 96.7955 566.691 96.7955C568.204 96.7955 569.589 96.5824 570.846 96.1562C572.103 95.7301 573.179 95.0909 574.074 94.2386C574.969 93.3864 575.651 92.3423 576.119 91.1065L588.712 91.9375C588.073 94.9631 586.762 97.6051 584.781 99.8636C582.82 102.101 580.285 103.848 577.174 105.105C574.085 106.341 570.516 106.959 566.468 106.959Z" fill="white"/>
</svg>
