<svg width="574" height="67" viewBox="0 0 574 67" fill="none" xmlns="http://www.w3.org/2000/svg">
<path d="M0.68892 66V0.545453H26.5128C31.456 0.545453 35.6747 1.42969 39.169 3.19815C42.6847 4.94531 45.3587 7.42756 47.1911 10.6449C49.0447 13.8409 49.9716 17.6016 49.9716 21.9268C49.9716 26.2734 49.0341 30.0128 47.1591 33.1449C45.2841 36.2557 42.5675 38.642 39.0092 40.304C35.4723 41.9659 31.1896 42.7969 26.1612 42.7969H8.87074V31.6747H23.924C26.5661 31.6747 28.7607 31.3125 30.5078 30.5881C32.255 29.8636 33.5547 28.777 34.407 27.3281C35.2805 25.8793 35.7173 24.0788 35.7173 21.9268C35.7173 19.7535 35.2805 17.9212 34.407 16.4297C33.5547 14.9382 32.2443 13.8089 30.4759 13.0419C28.7287 12.2536 26.5234 11.8594 23.8601 11.8594H14.5277V66H0.68892ZM36.0369 36.2131L52.3047 66H37.0277L21.1115 36.2131H36.0369ZM81.0769 66.9588C76.0272 66.9588 71.6806 65.9361 68.0371 63.8906C64.415 61.8239 61.6238 58.9048 59.6635 55.1335C57.7033 51.3409 56.7232 46.8558 56.7232 41.6783C56.7232 36.6286 57.7033 32.1967 59.6635 28.3828C61.6238 24.5689 64.383 21.5966 67.9412 19.4659C71.5208 17.3352 75.7182 16.2699 80.5336 16.2699C83.7722 16.2699 86.7871 16.7919 89.5783 17.8359C92.3908 18.8587 94.8411 20.4034 96.9292 22.4702C99.0385 24.5369 100.679 27.1364 101.851 30.2685C103.023 33.3793 103.609 37.0227 103.609 41.1989V44.9382H62.1564V36.5007H90.7928C90.7928 34.5405 90.3667 32.804 89.5144 31.2912C88.6621 29.7784 87.4796 28.5959 85.9668 27.7436C84.4753 26.87 82.7388 26.4332 80.7573 26.4332C78.6905 26.4332 76.8581 26.9126 75.2601 27.8714C73.6834 28.8089 72.4476 30.0767 71.5527 31.6747C70.6578 33.2514 70.1998 35.0092 70.1784 36.9482V44.9702C70.1784 47.3991 70.6259 49.4979 71.5208 51.2663C72.437 53.0348 73.726 54.3984 75.388 55.3572C77.0499 56.3161 79.0208 56.7955 81.3006 56.7955C82.8134 56.7955 84.1983 56.5824 85.4554 56.1562C86.7125 55.7301 87.7885 55.0909 88.6834 54.2386C89.5783 53.3864 90.2601 52.3423 90.7289 51.1065L103.321 51.9375C102.682 54.9631 101.372 57.6051 99.3901 59.8636C97.4299 62.1009 94.8944 63.848 91.7836 65.1051C88.6941 66.3409 85.1252 66.9588 81.0769 66.9588ZM153.339 30.9077L140.874 31.6747C140.661 30.6094 140.203 29.6506 139.5 28.7983C138.797 27.9247 137.87 27.2322 136.72 26.7209C135.59 26.1882 134.237 25.9219 132.661 25.9219C130.551 25.9219 128.772 26.3693 127.323 27.2642C125.874 28.1378 125.15 29.3097 125.15 30.7798C125.15 31.9517 125.619 32.9425 126.556 33.7521C127.494 34.5618 129.102 35.2116 131.382 35.7017L140.267 37.4915C145.04 38.4716 148.598 40.0483 150.942 42.2216C153.286 44.3949 154.458 47.25 154.458 50.7869C154.458 54.0043 153.509 56.8274 151.613 59.2564C149.738 61.6854 147.16 63.5817 143.879 64.9453C140.619 66.2876 136.858 66.9588 132.597 66.9588C126.098 66.9588 120.921 65.6058 117.064 62.8999C113.229 60.1726 110.981 56.4652 110.32 51.7777L123.712 51.0746C124.117 53.0561 125.097 54.5689 126.652 55.6129C128.208 56.6357 130.2 57.147 132.629 57.147C135.015 57.147 136.933 56.6889 138.382 55.7727C139.852 54.8352 140.597 53.6314 140.619 52.1612C140.597 50.9254 140.075 49.9134 139.053 49.125C138.03 48.3153 136.453 47.6974 134.323 47.2713L125.821 45.5774C121.027 44.6186 117.458 42.9567 115.115 40.5916C112.792 38.2266 111.631 35.2116 111.631 31.5469C111.631 28.3935 112.483 25.6768 114.188 23.397C115.914 21.1172 118.332 19.3594 121.443 18.1236C124.575 16.8878 128.24 16.2699 132.437 16.2699C138.637 16.2699 143.517 17.5803 147.075 20.201C150.654 22.8217 152.742 26.3906 153.339 30.9077ZM185.403 66.9588C180.353 66.9588 176.007 65.9361 172.363 63.8906C168.741 61.8239 165.95 58.9048 163.99 55.1335C162.029 51.3409 161.049 46.8558 161.049 41.6783C161.049 36.6286 162.029 32.1967 163.99 28.3828C165.95 24.5689 168.709 21.5966 172.267 19.4659C175.847 17.3352 180.044 16.2699 184.86 16.2699C188.098 16.2699 191.113 16.7919 193.904 17.8359C196.717 18.8587 199.167 20.4034 201.255 22.4702C203.365 24.5369 205.005 27.1364 206.177 30.2685C207.349 33.3793 207.935 37.0227 207.935 41.1989V44.9382H166.483V36.5007H195.119C195.119 34.5405 194.693 32.804 193.841 31.2912C192.988 29.7784 191.806 28.5959 190.293 27.7436C188.801 26.87 187.065 26.4332 185.083 26.4332C183.017 26.4332 181.184 26.9126 179.586 27.8714C178.01 28.8089 176.774 30.0767 175.879 31.6747C174.984 33.2514 174.526 35.0092 174.505 36.9482V44.9702C174.505 47.3991 174.952 49.4979 175.847 51.2663C176.763 53.0348 178.052 54.3984 179.714 55.3572C181.376 56.3161 183.347 56.7955 185.627 56.7955C187.14 56.7955 188.525 56.5824 189.782 56.1562C191.039 55.7301 192.115 55.0909 193.01 54.2386C193.904 53.3864 194.586 52.3423 195.055 51.1065L207.647 51.9375C207.008 54.9631 205.698 57.6051 203.716 59.8636C201.756 62.1009 199.221 63.848 196.11 65.1051C193.02 66.3409 189.451 66.9588 185.403 66.9588ZM216.82 66V16.9091H230.02V25.4744H230.531C231.426 22.4276 232.928 20.1264 235.037 18.571C237.147 16.9943 239.576 16.206 242.324 16.206C243.006 16.206 243.741 16.2486 244.529 16.3338C245.318 16.419 246.01 16.5362 246.607 16.6854V28.7663C245.968 28.5746 245.083 28.4041 243.954 28.255C242.825 28.1058 241.792 28.0312 240.854 28.0312C238.851 28.0312 237.061 28.468 235.485 29.3416C233.929 30.1939 232.694 31.3871 231.777 32.9212C230.882 34.4553 230.435 36.2237 230.435 38.2266V66H216.82ZM300.907 16.9091L283.745 66H268.404L251.241 16.9091H265.623L275.819 52.0334H276.33L286.493 16.9091H300.907ZM328.665 66.9588C323.615 66.9588 319.268 65.9361 315.625 63.8906C312.003 61.8239 309.212 58.9048 307.251 55.1335C305.291 51.3409 304.311 46.8558 304.311 41.6783C304.311 36.6286 305.291 32.1967 307.251 28.3828C309.212 24.5689 311.971 21.5966 315.529 19.4659C319.109 17.3352 323.306 16.2699 328.121 16.2699C331.36 16.2699 334.375 16.7919 337.166 17.8359C339.979 18.8587 342.429 20.4034 344.517 22.4702C346.626 24.5369 348.267 27.1364 349.439 30.2685C350.611 33.3793 351.197 37.0227 351.197 41.1989V44.9382H309.744V36.5007H338.381C338.381 34.5405 337.955 32.804 337.102 31.2912C336.25 29.7784 335.067 28.5959 333.555 27.7436C332.063 26.87 330.327 26.4332 328.345 26.4332C326.278 26.4332 324.446 26.9126 322.848 27.8714C321.271 28.8089 320.036 30.0767 319.141 31.6747C318.246 33.2514 317.788 35.0092 317.766 36.9482V44.9702C317.766 47.3991 318.214 49.4979 319.109 51.2663C320.025 53.0348 321.314 54.3984 322.976 55.3572C324.638 56.3161 326.609 56.7955 328.888 56.7955C330.401 56.7955 331.786 56.5824 333.043 56.1562C334.3 55.7301 335.376 55.0909 336.271 54.2386C337.166 53.3864 337.848 52.3423 338.317 51.1065L350.909 51.9375C350.27 54.9631 348.96 57.6051 346.978 59.8636C345.018 62.1009 342.482 63.848 339.371 65.1051C336.282 66.3409 332.713 66.9588 328.665 66.9588ZM360.337 0.545453H377.404L395.43 44.5227H396.197L414.222 0.545453H431.289V66H417.866V23.397H417.322L400.384 65.6804H391.243L374.304 23.2372H373.761V66H360.337V0.545453ZM456.434 66.9268C453.302 66.9268 450.51 66.3835 448.06 65.2969C445.61 64.1889 443.671 62.5589 442.243 60.407C440.837 58.2337 440.134 55.5277 440.134 52.2891C440.134 49.5618 440.635 47.2713 441.636 45.4176C442.638 43.5639 444.001 42.0724 445.727 40.9432C447.453 39.8139 449.413 38.9616 451.608 38.3864C453.824 37.8111 456.146 37.4062 458.575 37.1719C461.43 36.8736 463.731 36.5966 465.479 36.3409C467.226 36.0639 468.493 35.6591 469.282 35.1264C470.07 34.5937 470.464 33.8054 470.464 32.7614V32.5696C470.464 30.5455 469.825 28.9794 468.547 27.8714C467.29 26.7635 465.5 26.2095 463.177 26.2095C460.727 26.2095 458.778 26.7528 457.329 27.8395C455.88 28.9048 454.921 30.2472 454.452 31.8665L441.86 30.8438C442.499 27.8608 443.756 25.2827 445.631 23.1094C447.506 20.9148 449.925 19.2315 452.886 18.0597C455.869 16.8665 459.321 16.2699 463.241 16.2699C465.969 16.2699 468.579 16.5895 471.072 17.2287C473.586 17.8679 475.812 18.8587 477.751 20.201C479.711 21.5433 481.256 23.2692 482.385 25.3786C483.515 27.4666 484.079 29.9702 484.079 32.8892V66H471.167V59.1925H470.784C469.996 60.7266 468.941 62.0795 467.62 63.2514C466.299 64.402 464.711 65.3075 462.858 65.968C461.004 66.6072 458.863 66.9268 456.434 66.9268ZM460.333 57.5305C462.336 57.5305 464.104 57.1364 465.638 56.348C467.172 55.5384 468.376 54.4517 469.25 53.0881C470.123 51.7244 470.56 50.1797 470.56 48.4538V43.2443C470.134 43.5213 469.548 43.777 468.802 44.0114C468.078 44.2244 467.258 44.4268 466.341 44.6186C465.425 44.7891 464.509 44.9489 463.593 45.098C462.677 45.2259 461.846 45.343 461.1 45.4496C459.502 45.6839 458.106 46.0568 456.913 46.5682C455.72 47.0795 454.793 47.772 454.133 48.6456C453.472 49.4979 453.142 50.5632 453.142 51.8416C453.142 53.6953 453.813 55.1122 455.155 56.0923C456.519 57.0511 458.245 57.5305 460.333 57.5305ZM520.754 16.9091V27.1364H491.191V16.9091H520.754ZM497.902 5.14773H511.517V50.9148C511.517 52.1719 511.709 53.152 512.093 53.8551C512.476 54.5369 513.009 55.0163 513.691 55.2933C514.394 55.5703 515.203 55.7088 516.119 55.7088C516.759 55.7088 517.398 55.6555 518.037 55.549C518.676 55.4212 519.166 55.3253 519.507 55.2614L521.649 65.3928C520.967 65.6058 520.008 65.8509 518.772 66.1278C517.536 66.4261 516.034 66.6072 514.266 66.6712C510.985 66.799 508.108 66.3622 505.637 65.3608C503.186 64.3594 501.279 62.804 499.916 60.6946C498.552 58.5852 497.881 55.9219 497.902 52.7045V5.14773ZM551.468 66.9588C546.418 66.9588 542.071 65.9361 538.428 63.8906C534.806 61.8239 532.014 58.9048 530.054 55.1335C528.094 51.3409 527.114 46.8558 527.114 41.6783C527.114 36.6286 528.094 32.1967 530.054 28.3828C532.014 24.5689 534.774 21.5966 538.332 19.4659C541.911 17.3352 546.109 16.2699 550.924 16.2699C554.163 16.2699 557.178 16.7919 559.969 17.8359C562.781 18.8587 565.232 20.4034 567.32 22.4702C569.429 24.5369 571.07 27.1364 572.242 30.2685C573.414 33.3793 573.999 37.0227 573.999 41.1989V44.9382H532.547V36.5007H561.183C561.183 34.5405 560.757 32.804 559.905 31.2912C559.053 29.7784 557.87 28.5959 556.357 27.7436C554.866 26.87 553.129 26.4332 551.148 26.4332C549.081 26.4332 547.249 26.9126 545.651 27.8714C544.074 28.8089 542.838 30.0767 541.943 31.6747C541.048 33.2514 540.59 35.0092 540.569 36.9482V44.9702C540.569 47.3991 541.017 49.4979 541.911 51.2663C542.828 53.0348 544.117 54.3984 545.779 55.3572C547.441 56.3161 549.411 56.7955 551.691 56.7955C553.204 56.7955 554.589 56.5824 555.846 56.1562C557.103 55.7301 558.179 55.0909 559.074 54.2386C559.969 53.3864 560.651 52.3423 561.119 51.1065L573.712 51.9375C573.073 54.9631 571.762 57.6051 569.781 59.8636C567.82 62.1009 565.285 63.848 562.174 65.1051C559.085 66.3409 555.516 66.9588 551.468 66.9588Z" fill="#2A80FF"/>
</svg>
